<?xml version="1.0" encoding="utf-8"?>
<!-- Generator: Adobe Illustrator 26.3.1, SVG Export Plug-In . SVG Version: 6.00 Build 0)  -->
<svg version="1.1" id="Layer_1" xmlns="http://www.w3.org/2000/svg" xmlns:xlink="http://www.w3.org/1999/xlink" x="0px" y="0px"
	 viewBox="0 0 53.3 36" style="enable-background:new 0 0 53.3 36;" xml:space="preserve">
<style type="text/css">
	.st0{fill:#70707B;}
</style>
<path class="st0" d="M13.3,27c-1,0-1.8-0.3-2.5-1s-1-1.5-1-2.5s0.3-1.8,1-2.5c0.7-0.7,1.5-1,2.5-1h1.5v-4h-1.5c-1,0-1.8-0.3-2.5-1
	s-1-1.5-1-2.5s0.3-1.8,1-2.5s1.5-1,2.5-1s1.8,0.3,2.5,1s1,1.5,1,2.5V14h4v-1.5c0-1,0.3-1.8,1-2.5c0.7-0.7,1.5-1,2.5-1s1.8,0.3,2.5,1
	s1,1.5,1,2.5s-0.3,1.8-1,2.5s-1.5,1-2.5,1h-1.5v4h1.5c1,0,1.8,0.3,2.5,1c0.7,0.7,1,1.5,1,2.5s-0.3,1.8-1,2.5s-1.5,1-2.5,1
	s-1.8-0.3-2.5-1c-0.7-0.7-1-1.5-1-2.5V22h-4v1.5c0,1-0.3,1.8-1,2.5S14.3,27,13.3,27z M13.3,25c0.4,0,0.8-0.1,1.1-0.4
	c0.3-0.3,0.4-0.7,0.4-1.1V22h-1.5c-0.4,0-0.8,0.1-1.1,0.4c-0.3,0.3-0.4,0.7-0.4,1.1s0.1,0.8,0.4,1.1C12.5,24.9,12.9,25,13.3,25z
	 M24.3,25c0.4,0,0.8-0.1,1.1-0.4c0.3-0.3,0.4-0.6,0.4-1.1s-0.1-0.8-0.4-1.1c-0.3-0.3-0.6-0.4-1.1-0.4h-1.5v1.5
	c0,0.4,0.1,0.8,0.4,1.1C23.5,24.9,23.9,25,24.3,25z M16.8,20h4v-4h-4V20z M13.3,14h1.5v-1.5c0-0.4-0.1-0.8-0.4-1.1
	c-0.3-0.3-0.7-0.4-1.1-0.4c-0.4,0-0.8,0.1-1.1,0.4c-0.3,0.3-0.4,0.7-0.4,1.1c0,0.4,0.1,0.8,0.4,1.1C12.5,13.9,12.9,14,13.3,14z
	 M22.8,14h1.5c0.4,0,0.8-0.1,1.1-0.4c0.3-0.3,0.4-0.7,0.4-1.1c0-0.4-0.1-0.8-0.4-1.1c-0.3-0.3-0.7-0.4-1.1-0.4s-0.8,0.1-1.1,0.4
	c-0.3,0.3-0.4,0.7-0.4,1.1V14z"/>
<g>
	<path class="st0" d="M31.6,9.5h2.2v8.2h0.1c0.5-0.7,0.9-1.3,1.3-1.8l5.2-6.4h2.7L37,16.7l6.6,9.8H41l-5.6-8.3L33.8,20v6.5h-2.2V9.5
		z"/>
</g>
</svg>
