<?xml version="1.0" encoding="utf-8"?>
<!-- Generator: Adobe Illustrator 26.3.1, SVG Export Plug-In . SVG Version: 6.00 Build 0)  -->
<svg version="1.1" id="Layer_1" xmlns="http://www.w3.org/2000/svg" xmlns:xlink="http://www.w3.org/1999/xlink" x="0px" y="0px"
	 viewBox="0 0 24 24" style="enable-background:new 0 0 24 24;" xml:space="preserve">
<style type="text/css">
	.st0{fill:#A0A0AB;}
</style>
<path class="st0" d="M21.6,11.3c0-1.9-1.4-3.3-3.2-3.3c-0.1,0-0.1,0-0.2-0.2C18,6.2,17,4.6,15.6,3.6c-1.4-1-3.2-1.4-4.9-1.1
	C8.1,3.1,6.1,5.2,5.8,7.9C5.8,8,5.8,8,5.7,8l-0.2,0c-0.4,0-0.7,0.1-1.1,0.2c-1.3,0.6-2,1.6-2,3.1l0,6.8c0,2,1.4,3.4,3.4,3.4l8.2,0
	c0.6,0,1.3,0,1.9,0c0.8,0,1.6,0,2.3,0c2,0,3.4-1.4,3.4-3.4C21.6,15.9,21.6,13.6,21.6,11.3z M7.9,8C8,6.5,9.5,4.5,12,4.5
	c0,0,0.1,0,0.1,0c2.4,0,3.9,2.1,4,3.5H7.9z M19.5,11.5v2.2c0,1.5,0,3,0,4.5c0,0.7-0.4,1.2-1,1.3c-0.1,0-0.2,0-0.3,0
	c-1.6,0-3.1,0-4.7,0l-1.6,0l-2.1,0l-4.1,0c-0.9,0-1.3-0.5-1.3-1.3l0-2.1c0-1.6,0-3.2,0-4.8c0-0.7,0.4-1.1,1-1.2c0.1,0,0.2,0,0.3,0
	c4.1,0,8.2,0,12.3,0c0.5,0,0.8,0.1,1.1,0.3C19.4,10.7,19.5,11,19.5,11.5z"/>
</svg>
