<?xml version="1.0" encoding="utf-8"?>
<!-- Generator: Adobe Illustrator 26.3.1, SVG Export Plug-In . SVG Version: 6.00 Build 0)  -->
<svg version="1.1" id="Layer_1" xmlns="http://www.w3.org/2000/svg" xmlns:xlink="http://www.w3.org/1999/xlink" x="0px" y="0px"
	 viewBox="0 0 24 24" style="enable-background:new 0 0 24 24;" xml:space="preserve">
<style type="text/css">
	.st0{fill:#A0A0AB;}
</style>
<path class="st0" d="M21.6,6.4c0-0.8-0.4-1.5-1.2-1.8c-0.3-0.1-0.6-0.2-1-0.2c-2.9,0-5.8,0-8.7,0l-6.2,0c-0.7,0-1.3,0.3-1.8,0.9
	C2.5,5.8,2.4,6.2,2.4,6.7l0,10.8c0,1.3,0.8,2.1,2.1,2.1c1.7,0,3.4,0,5.1,0l2.3,0v0l4.2,0c0.4,0,0.8,0,1.2,0c0.7,0,1.4,0,2.1,0
	c1.2,0,2.1-0.9,2.1-2.1l0-4.5L21.6,6.4z M19.3,7.6c-0.3,0.6-0.7,1.1-1.2,1.5l-0.5,0.4c-1.4,1.1-2.9,2.3-4.3,3.4
	c-0.2,0.2-0.5,0.4-0.8,0.5c-0.3,0.2-0.5,0.2-0.8,0c-0.4-0.3-0.8-0.5-1.1-0.7c-0.8-0.6-1.6-1.3-2.4-1.9C7.4,10.3,6.7,9.7,6,9.1
	C5.1,8.4,4.7,7.7,4.5,6.9c0-0.1-0.1-0.4-0.1-0.4c0,0,0.2,0,0.4,0c0,0,0,0,0,0c1.7,0,3.4,0,5.2,0l2,0l7.4,0c0,0,0.1,0,0.1,0
	c0,0,0,0.1,0,0.1C19.5,7,19.4,7.3,19.3,7.6z M13.2,15.4c0.5-0.2,0.9-0.5,1.2-0.7c1.5-1.2,3-2.4,4.5-3.6l0.5-0.4c0,0,0.1-0.1,0.1-0.1
	l0,6.8c0,0.1,0,0.1,0,0.2c0,0-0.1,0-0.2,0l-14.7,0c-0.1,0-0.1,0-0.1,0c0,0,0-0.1,0-0.1v-6.8l0.9,0.7c1.4,1.1,2.8,2.3,4.2,3.4
	c0.4,0.3,0.9,0.6,1.4,0.8C11.7,15.8,12.5,15.7,13.2,15.4z"/>
</svg>
