<?xml version="1.0" encoding="utf-8"?>
<!-- Generator: Adobe Illustrator 26.3.1, SVG Export Plug-In . SVG Version: 6.00 Build 0)  -->
<svg version="1.1" id="Layer_1" xmlns="http://www.w3.org/2000/svg" xmlns:xlink="http://www.w3.org/1999/xlink" x="0px" y="0px"
	 viewBox="0 0 24 24" style="enable-background:new 0 0 24 24;" xml:space="preserve">
<style type="text/css">
	.st0{fill:#A0A0AB;}
</style>
<path class="st0" d="M11,18c1.9,0,3.6-0.7,4.9-2s2.1-3,2.1-5c0-1.9-0.7-3.6-2.1-5s-3-2-4.9-2S7.4,4.7,6,6s-2,3-2,5
	c0,1.9,0.7,3.6,2,5S9.1,18,11,18z M10.6,20c-1.2,0-3-0.6-4-1.1c-0.7-0.4-1.3-0.9-1.9-1.5c-0.8-0.8-1.5-1.8-1.9-2.8S2,12.3,2,11
	c0-1.2,0.2-2.4,0.7-3.5s1.1-2,1.9-2.9s1.8-1.5,2.8-1.9S9.8,2,11,2s2.4,0.2,3.5,0.7s2,1.1,2.9,1.9s1.5,1.8,1.9,2.9S20,9.8,20,11
	c0,1.1-0.2,2.1-0.5,3c-0.4,1-0.8,1.8-1.5,2.6l3.3,3.3c0.4,0.4,0.4,1,0,1.4l0,0c-0.4,0.4-1,0.4-1.4,0L16.6,18
	c-0.8,0.6-1.7,1.1-2.6,1.4C13,19.8,11.9,20,10.6,20z"/>
</svg>
