<?xml version="1.0" encoding="utf-8"?>
<!-- Generator: Adobe Illustrator 26.3.1, SVG Export Plug-In . SVG Version: 6.00 Build 0)  -->
<svg version="1.1" id="Layer_1" xmlns="http://www.w3.org/2000/svg" xmlns:xlink="http://www.w3.org/1999/xlink" x="0px" y="0px"
	 viewBox="0 0 24 24" style="enable-background:new 0 0 24 24;" xml:space="preserve">
<style type="text/css">
	.st0{fill:#A0A0AB;}
</style>
<path class="st0" d="M21.6,19.2c-0.5-3.2-2.2-5.5-5-7.1c-0.3-0.2-0.7-0.3-1-0.5c1-0.9,1.6-2.1,1.8-3.4c0.2-1.5-0.3-3-1.3-4.2
	c-1-1.1-2.3-1.7-3.7-1.8c-1.4-0.1-2.8,0.4-3.9,1.3c-1.2,1-1.8,2.3-1.8,3.8c-0.1,1.7,0.5,3.1,1.8,4.2c-3.4,1.4-5.4,4-6.1,7.6
	c-0.1,0.6,0,1.3,0.4,1.7c0.4,0.5,1,0.8,1.7,0.8c2.5,0,5,0,7.5,0c2.5,0,5,0,7.5,0c0.6,0,1.2-0.3,1.6-0.7
	C21.6,20.5,21.7,19.9,21.6,19.2z M9.8,5.2c0.7-0.6,1.5-0.9,2.4-0.9C14,4.4,15.4,6,15.3,7.9c0,0.8-0.4,1.7-1.1,2.3
	c-0.6,0.6-1.5,0.9-2.3,0.9C10,10.9,8.6,9.3,8.7,7.4C8.7,6.6,9.1,5.8,9.8,5.2z M19.5,19.7c-0.1,0-0.1,0-0.2,0H12h-1.2
	c-2,0-4.1,0-6.1,0c-0.1,0-0.2,0-0.2-0.1c0.4-2.5,1.8-4.4,4-5.6c2.1-1.1,4.6-1.2,6.8-0.3c2.2,1,3.8,2.9,4.3,5.3
	C19.5,19.2,19.6,19.4,19.5,19.7L19.5,19.7z"/>
</svg>
